<svg xmlns="http://www.w3.org/2000/svg" version="1.1" xmlns:xlink="http://www.w3.org/1999/xlink" xmlns:svgjs="http://svgjs.dev/svgjs" width="1500" height="1500" viewBox="0 0 1500 1500"><rect width="1500" height="1500" fill="#521635"></rect><g transform="matrix(0.6666666666666666,0,0,0.6666666666666666,249.39393939393938,620.4776803937427)"><svg viewBox="0 0 396 102" data-background-color="#521635" preserveAspectRatio="xMidYMid meet" height="386" width="1500" xmlns="http://www.w3.org/2000/svg" xmlns:xlink="http://www.w3.org/1999/xlink"><g id="tight-bounds" transform="matrix(1,0,0,1,0.2400000000000091,0.3391577713921663)"><svg viewBox="0 0 395.52 101.32168445721567" height="101.32168445721567" width="395.52"><g><svg viewBox="0 0 395.52 101.32168445721567" height="101.32168445721567" width="395.52"><g><svg viewBox="0 0 564.9748152092966 144.73149259938836" height="101.32168445721567" width="395.52"><g transform="matrix(1,0,0,1,169.4548152092966,20.002688195718655)"><svg viewBox="0 0 395.5199999999999 104.72611620795105" height="104.72611620795105" width="395.5199999999999"><g id="textblocktransform"><svg viewBox="0 0 395.5199999999999 104.72611620795105" height="104.72611620795105" width="395.5199999999999" id="textblock"><g><svg viewBox="0 0 395.5199999999999 104.72611620795105" height="104.72611620795105" width="395.5199999999999"><g transform="matrix(1,0,0,1,0,0)"><svg width="395.5199999999999" viewBox="2 -37.5 196.18 51.949999999999996" height="104.72611620795105" data-palette-color="url(#674d5588-8382-49a9-ae08-ea8218845de6)"></svg></g></svg></g></svg></g></svg></g><g><svg viewBox="0 0 144.73149259938836 144.73149259938836" height="144.73149259938836" width="144.73149259938836"><g><svg xmlns="http://www.w3.org/2000/svg" xmlns:xlink="http://www.w3.org/1999/xlink" version="1.1" x="0" y="0" viewBox="5 5 90 90" style="enable-background:new 0 0 100 100;" xml:space="preserve" height="144.73149259938836" width="144.73149259938836" class="icon-icon-0" data-fill-palette-color="accent" id="icon-0"></svg></g></svg></g></svg></g></svg></g><defs></defs><mask id="9b05d88a-2d20-439e-b114-d70285dc4759"><g id="SvgjsG2475"><svg viewBox="0 0 395.52 101.32168445721567" height="101.32168445721567" width="395.52"><g><svg viewBox="0 0 395.52 101.32168445721567" height="101.32168445721567" width="395.52"><g><svg viewBox="0 0 564.9748152092966 144.73149259938836" height="101.32168445721567" width="395.52"><g transform="matrix(1,0,0,1,169.4548152092966,20.002688195718655)"><svg viewBox="0 0 395.5199999999999 104.72611620795105" height="104.72611620795105" width="395.5199999999999"><g id="SvgjsG2474"><svg viewBox="0 0 395.5199999999999 104.72611620795105" height="104.72611620795105" width="395.5199999999999" id="SvgjsSvg2473"><g><svg viewBox="0 0 395.5199999999999 104.72611620795105" height="104.72611620795105" width="395.5199999999999"><g transform="matrix(1,0,0,1,0,0)"><svg width="395.5199999999999" viewBox="2 -37.5 196.18 51.949999999999996" height="104.72611620795105" data-palette-color="url(#674d5588-8382-49a9-ae08-ea8218845de6)"><path d="M27.4-6.8L27.4-6.8 27-14.05Q27-15.05 27.68-15.83 28.35-16.6 29.4-16.6 30.45-16.6 31.13-15.83 31.8-15.05 31.8-14.05L31.8-14.05Q31.8-13.9 31.58-10.2 31.35-6.5 31.35-1.68 31.35 3.15 31.58 7.3 31.8 11.45 31.8 12.2 31.8 12.95 31.13 13.7 30.45 14.45 29.4 14.45 28.35 14.45 27.68 13.7 27 12.95 27 12.15 27 11.35 27.2 7.23 27.4 3.1 27.45-1.45L27.45-1.45 27.45-3.55Q22.65 0.3 17.35 0.3L17.35 0.3Q10.85 0.3 6.43-4.38 2-9.05 2-15.7L2-15.7Q2-24 6.98-29.4 11.95-34.8 19.65-34.8L19.65-34.8Q24.1-34.8 27.83-33.02 31.55-31.25 31.55-28.95L31.55-28.95Q31.55-27.95 30.88-27.25 30.2-26.55 29.25-26.55 28.3-26.55 27.35-27.3 26.4-28.05 25.53-28.98 24.65-29.9 22.78-30.65 20.9-31.4 18.35-31.4L18.35-31.4Q12.6-31.4 9.35-27.75 6.1-24.1 6.1-18.1 6.1-12.1 9.68-7.6 13.25-3.1 19-3.1L19-3.1Q23.5-3.1 27.4-6.8ZM37.85-3.65L37.85-3.65Q37.85-23.1 37.6-26.9L37.6-26.9Q37.15-33.8 37.15-34.95 37.15-36.1 37.82-36.8 38.5-37.5 39.45-37.5 40.4-37.5 41-36.8 41.6-36.1 41.6-35.05L41.6-35.05Q41.6-31.9 41.35-26.5L41.35-26.5Q40.85-13.8 40.85-7.6L40.85-7.6Q40.85-6.1 41.82-4.73 42.8-3.35 42.8-2.25 42.8-1.15 42.05-0.43 41.3 0.3 40.35 0.3L40.35 0.3Q37.85 0.3 37.85-3.65ZM52.07-16.65Q49.85-14.45 49.85-11.25 49.85-8.05 52.07-5.83 54.3-3.6 57.47-3.6 60.65-3.6 62.8-5.83 64.95-8.05 64.95-11.25 64.95-14.45 62.8-16.65 60.65-18.85 57.47-18.85 54.3-18.85 52.07-16.65ZM54.05 0.3Q50.85 0.3 48.7-2.2 46.55-4.7 46.55-8.47 46.55-12.25 48.9-15.78 51.25-19.3 54.4-21.05 57.55-22.8 60.75-22.8 63.95-22.8 66.1-20.3 68.25-17.8 68.25-14.03 68.25-10.25 65.9-6.73 63.55-3.2 60.4-1.45 57.25 0.3 54.05 0.3ZM79.49 0.3L79.49 0.3Q78.59 0.3 77.92-0.48 77.24-1.25 76.89-2.35L76.89-2.35Q73.79-12.45 71.44-17.45L71.44-17.45Q70.49-19.6 70.49-20.6 70.49-21.6 71.04-22.2 71.59-22.8 72.44-22.8L72.44-22.8Q73.74-22.8 74.57-20.85 75.39-18.9 77.62-12.88 79.84-6.85 80.29-5.43 80.74-4 80.89-3.6L80.89-3.6 81.04-3.1Q82.44-4.05 84.22-7.05 85.99-10.05 86.64-13L86.64-13Q85.69-15.55 84.79-17.57 83.89-19.6 83.89-20.6 83.89-21.6 84.44-22.2 84.99-22.8 85.84-22.8L85.84-22.8Q87.14-22.8 87.97-20.85 88.79-18.9 91.02-12.88 93.24-6.85 93.69-5.43 94.14-4 94.29-3.6L94.29-3.6 94.44-3.1Q96.24-4.3 98.32-8.33 100.39-12.35 100.39-15.6L100.39-15.6Q100.39-16.7 99.79-18.23 99.19-19.75 99.19-20.6 99.19-21.45 99.87-22.13 100.54-22.8 101.69-22.8 102.84-22.8 103.57-21.7 104.29-20.6 104.29-18 104.29-15.4 102.57-10.95 100.84-6.5 98.09-3.1 95.34 0.3 92.89 0.3L92.89 0.3Q91.19 0.3 90.29-2.35L90.29-2.35Q90.09-2.9 89.39-5.1L89.39-5.1 88.14-8.75Q86.29-4.9 83.94-2.3 81.59 0.3 79.49 0.3ZM107.44-17.45L107.44-17.45Q106.29-19.5 106.29-20.53 106.29-21.55 106.89-22.18 107.49-22.8 108.64-22.8 109.79-22.8 110.79-20.93 111.79-19.05 114.19-13.13 116.59-7.2 117.64-4.2L117.64-4.2 118.04-3.1Q119.79-4.2 121.92-8.22 124.04-12.25 124.04-15.5L124.04-15.5Q124.04-16.6 123.44-18.18 122.84-19.75 122.84-20.6 122.84-21.45 123.52-22.13 124.19-22.8 125.34-22.8 126.49-22.8 127.22-21.73 127.94-20.65 127.94-18.07 127.94-15.5 126.14-11.1 124.34-6.7 121.69-3.35L121.69-3.35Q118.79 0.3 116.54 0.3L116.54 0.3Q114.94 0.3 113.94-2.35L113.94-2.35Q110.49-11.9 107.44-17.45ZM140.84-9.95L140.84-9.95 134.89-10.45Q134.04-10.45 133.54-10.3L133.54-10.3Q133.84-7.45 135.96-5.55 138.09-3.65 140.99-3.65L140.99-3.65Q143.79-3.65 146.04-5.7L146.04-5.7Q146.84-6.4 147.24-6.4 147.64-6.4 147.94-6.1 148.24-5.8 148.24-5.45L148.24-5.45Q148.24-4 145.41-1.85 142.59 0.3 139.01 0.3 135.44 0.3 132.81-2.6 130.19-5.5 130.19-9.8L130.19-9.8Q130.19-15.3 134.34-19.05 138.49-22.8 143.49-22.8L143.49-22.8Q145.59-22.8 146.91-22.08 148.24-21.35 148.24-20.23 148.24-19.1 147.56-18.4 146.89-17.7 146.24-17.7 145.59-17.7 144.01-18.3 142.44-18.9 140.99-18.9L140.99-18.9Q138.29-18.9 136.31-17.28 134.34-15.65 133.69-13.25L133.69-13.25 140.59-13.65Q142.89-13.65 142.89-11.85L142.89-11.85Q142.89-9.95 140.84-9.95ZM157.94 0.3Q154.79 0.3 152.64-2.2 150.49-4.7 150.49-7.98 150.49-11.25 151.79-14.1 153.09-16.95 155.09-18.8 157.09-20.65 159.41-21.73 161.74-22.8 164.21-22.8 166.69-22.8 168.79-20.95L168.79-20.95Q168.74-24.7 168.44-29.18 168.14-33.65 168.14-34.8 168.14-35.95 168.74-36.73 169.34-37.5 170.29-37.5 171.24-37.5 171.91-36.68 172.59-35.85 172.59-34.48 172.59-33.1 172.16-28.08 171.74-23.05 171.74-18.65 171.74-14.25 172.09-11.03 172.44-7.8 172.84-6.65L172.84-6.65Q173.99-3.6 173.99-2.55L173.99-2.55Q173.99 0.3 171.79 0.3L171.79 0.3Q169.14 0.3 168.69-5.35L168.69-5.35Q166.69-2.7 163.89-1.2 161.09 0.3 157.94 0.3ZM156.01-16.65Q153.79-14.45 153.79-11.25 153.79-8.05 156.01-5.83 158.24-3.6 161.41-3.6 164.59-3.6 166.74-5.83 168.89-8.05 168.89-11.45 168.89-14.85 166.94-16.85 164.99-18.85 161.61-18.85 158.24-18.85 156.01-16.65ZM195.58-6.7Q195.93-5.8 197.06-4.28 198.18-2.75 198.18-1.8 198.18-0.85 197.68-0.28 197.18 0.3 196.33 0.3L196.33 0.3Q194.28 0.3 192.68-3.95L192.68-3.95 192.28-5.05Q189.73 0.3 184.63 0.3L184.63 0.3Q182.08 0.3 180.41-1.33 178.73-2.95 178.73-5.4L178.73-5.4Q178.73-9.2 181.33-11.95 183.93-14.7 188.13-14.9L188.13-14.9Q187.13-16.65 185.91-17.53 184.68-18.4 183.68-18.55 182.68-18.7 181.81-18.73 180.93-18.75 180.43-19.1 179.93-19.45 179.93-20.48 179.93-21.5 180.76-22.15 181.58-22.8 182.73-22.8L182.73-22.8Q185.98-22.8 189.13-19.55 192.28-16.3 194.63-9.35L194.63-9.35 195.58-6.7ZM186.88-12.25Q185.08-12.25 183.66-11.05 182.23-9.85 182.23-7.95 182.23-6.05 183.51-4.78 184.78-3.5 186.58-3.5 188.38-3.5 189.68-4.78 190.98-6.05 190.98-7.8L190.98-7.8Q190.98-9.05 190.53-10.13 190.08-11.2 189.98-11.45L189.98-11.45Q188.68-12.25 186.88-12.25Z" opacity="1" transform="matrix(1,0,0,1,0,0)" fill="white" class="wordmark-text-0" id="SvgjsPath2472"></path></svg></g></svg></g></svg></g></svg></g><g><svg viewBox="0 0 144.73149259938836 144.73149259938836" height="144.73149259938836" width="144.73149259938836"><g><svg xmlns="http://www.w3.org/2000/svg" xmlns:xlink="http://www.w3.org/1999/xlink" version="1.1" x="0" y="0" viewBox="5 5 90 90" style="enable-background:new 0 0 100 100;" xml:space="preserve" height="144.73149259938836" width="144.73149259938836" class="icon-icon-0" data-fill-palette-color="accent" id="SvgjsSvg2471"><path d="M53.75 5C42.731 5 32.373 9.291 24.582 17.082L17.082 24.582C9.291 32.373 5 42.731 5 53.75S9.291 75.127 17.082 82.918 35.231 95 46.25 95 67.627 90.709 75.418 82.918L82.918 75.418C90.709 67.627 95 57.269 95 46.25S90.709 24.873 82.918 17.082 64.769 5 53.75 5M71.883 79.383C57.748 93.516 34.752 93.516 20.617 79.383 6.483 65.249 6.483 42.251 20.617 28.117 27.684 21.051 36.967 17.516 46.25 17.516S64.815 21.05 71.883 28.117C86.017 42.251 86.017 65.249 71.883 79.383M86.858 60.994A42 42 0 0 0 87.5 53.75C87.5 42.731 83.209 32.373 75.418 24.582S57.269 12.5 46.25 12.5C43.795 12.5 41.375 12.725 39.007 13.142A36.3 36.3 0 0 1 53.75 10.016C63.033 10.016 72.315 13.55 79.383 20.617 90.281 31.516 92.767 47.682 86.858 60.994" fill="black"></path><path d="M46.25 22.5A31.07 31.07 0 0 0 28.74 27.88 2 2 0 0 0 28.494 28.055C20.349 33.701 15 43.11 15 53.75 15 70.981 29.019 85 46.25 85 56.891 85 66.302 79.65 71.948 71.503 72.009 71.424 72.069 71.346 72.12 71.262A31.1 31.1 0 0 0 77.5 53.75C77.5 36.519 63.481 22.5 46.25 22.5M46.25 80C31.775 80 20 68.225 20 53.75 20 49.514 21.015 45.512 22.805 41.966A31.5 31.5 0 0 0 22.5 46.25C22.5 63.481 36.519 77.5 53.75 77.5 55.193 77.5 56.622 77.389 58.034 77.195A26.1 26.1 0 0 1 46.25 80M68.171 68.166A26.1 26.1 0 0 1 53.75 72.5C39.275 72.5 27.5 60.725 27.5 46.25A26.1 26.1 0 0 1 31.834 31.829 26.1 26.1 0 0 1 46.25 27.5C60.725 27.5 72.5 39.275 72.5 53.75A26.1 26.1 0 0 1 68.171 68.166" fill="black"></path></svg></g></svg></g></svg></g></svg></g><defs><mask></mask></defs></svg><rect width="395.52" height="101.32168445721567" fill="black" stroke="none" visibility="hidden"></rect></g></mask><linearGradient x1="0.054" x2="0.941" y1="0.5" y2="0.5" id="674d5588-8382-49a9-ae08-ea8218845de6"><stop stop-color="#eaa79c" offset="0"></stop><stop stop-color="#f2e8cb" offset="0.498"></stop><stop stop-color="#eaa79c" offset="1"></stop></linearGradient><rect width="395.52" height="101.32168445721567" fill="url(#674d5588-8382-49a9-ae08-ea8218845de6)" mask="url(#9b05d88a-2d20-439e-b114-d70285dc4759)" data-fill-palette-color="primary"></rect><mask id="f7010603-8df0-419f-8c73-98a0a3d04f46"><g id="SvgjsG2484"><svg viewBox="0 0 395.52 101.32168445721567" height="101.32168445721567" width="395.52"><g><svg viewBox="0 0 395.52 101.32168445721567" height="101.32168445721567" width="395.52"><g><svg viewBox="0 0 564.9748152092966 144.73149259938836" height="101.32168445721567" width="395.52"><g transform="matrix(1,0,0,1,169.4548152092966,20.002688195718655)"><svg viewBox="0 0 395.5199999999999 104.72611620795105" height="104.72611620795105" width="395.5199999999999"><g id="SvgjsG2483"><svg viewBox="0 0 395.5199999999999 104.72611620795105" height="104.72611620795105" width="395.5199999999999" id="SvgjsSvg2482"><g><svg viewBox="0 0 395.5199999999999 104.72611620795105" height="104.72611620795105" width="395.5199999999999"><g transform="matrix(1,0,0,1,0,0)"><svg width="395.5199999999999" viewBox="2 -37.5 196.18 51.949999999999996" height="104.72611620795105" data-palette-color="url(#674d5588-8382-49a9-ae08-ea8218845de6)"></svg></g></svg></g></svg></g></svg></g><g><svg viewBox="0 0 144.73149259938836 144.73149259938836" height="144.73149259938836" width="144.73149259938836"><g><svg xmlns="http://www.w3.org/2000/svg" xmlns:xlink="http://www.w3.org/1999/xlink" version="1.1" x="0" y="0" viewBox="5 5 90 90" style="enable-background:new 0 0 100 100;" xml:space="preserve" height="144.73149259938836" width="144.73149259938836" class="icon-icon-0" data-fill-palette-color="accent" id="SvgjsSvg2481"><path d="M53.75 5C42.731 5 32.373 9.291 24.582 17.082L17.082 24.582C9.291 32.373 5 42.731 5 53.75S9.291 75.127 17.082 82.918 35.231 95 46.25 95 67.627 90.709 75.418 82.918L82.918 75.418C90.709 67.627 95 57.269 95 46.25S90.709 24.873 82.918 17.082 64.769 5 53.75 5M71.883 79.383C57.748 93.516 34.752 93.516 20.617 79.383 6.483 65.249 6.483 42.251 20.617 28.117 27.684 21.051 36.967 17.516 46.25 17.516S64.815 21.05 71.883 28.117C86.017 42.251 86.017 65.249 71.883 79.383M86.858 60.994A42 42 0 0 0 87.5 53.75C87.5 42.731 83.209 32.373 75.418 24.582S57.269 12.5 46.25 12.5C43.795 12.5 41.375 12.725 39.007 13.142A36.3 36.3 0 0 1 53.75 10.016C63.033 10.016 72.315 13.55 79.383 20.617 90.281 31.516 92.767 47.682 86.858 60.994" fill="white"></path><path d="M46.25 22.5A31.07 31.07 0 0 0 28.74 27.88 2 2 0 0 0 28.494 28.055C20.349 33.701 15 43.11 15 53.75 15 70.981 29.019 85 46.25 85 56.891 85 66.302 79.65 71.948 71.503 72.009 71.424 72.069 71.346 72.12 71.262A31.1 31.1 0 0 0 77.5 53.75C77.5 36.519 63.481 22.5 46.25 22.5M46.25 80C31.775 80 20 68.225 20 53.75 20 49.514 21.015 45.512 22.805 41.966A31.5 31.5 0 0 0 22.5 46.25C22.5 63.481 36.519 77.5 53.75 77.5 55.193 77.5 56.622 77.389 58.034 77.195A26.1 26.1 0 0 1 46.25 80M68.171 68.166A26.1 26.1 0 0 1 53.75 72.5C39.275 72.5 27.5 60.725 27.5 46.25A26.1 26.1 0 0 1 31.834 31.829 26.1 26.1 0 0 1 46.25 27.5C60.725 27.5 72.5 39.275 72.5 53.75A26.1 26.1 0 0 1 68.171 68.166" fill="white"></path></svg></g></svg></g></svg></g></svg></g><defs><mask></mask></defs><mask><g id="SvgjsG2480"><svg viewBox="0 0 395.52 101.32168445721567" height="101.32168445721567" width="395.52"><g><svg viewBox="0 0 395.52 101.32168445721567" height="101.32168445721567" width="395.52"><g><svg viewBox="0 0 564.9748152092966 144.73149259938836" height="101.32168445721567" width="395.52"><g transform="matrix(1,0,0,1,169.4548152092966,20.002688195718655)"><svg viewBox="0 0 395.5199999999999 104.72611620795105" height="104.72611620795105" width="395.5199999999999"><g id="SvgjsG2479"><svg viewBox="0 0 395.5199999999999 104.72611620795105" height="104.72611620795105" width="395.5199999999999" id="SvgjsSvg2478"><g><svg viewBox="0 0 395.5199999999999 104.72611620795105" height="104.72611620795105" width="395.5199999999999"><g transform="matrix(1,0,0,1,0,0)"><svg width="395.5199999999999" viewBox="2 -37.5 196.18 51.949999999999996" height="104.72611620795105" data-palette-color="url(#674d5588-8382-49a9-ae08-ea8218845de6)"><path d="M27.4-6.8L27.4-6.8 27-14.05Q27-15.05 27.68-15.83 28.35-16.6 29.4-16.6 30.45-16.6 31.13-15.83 31.8-15.05 31.8-14.05L31.8-14.05Q31.8-13.9 31.58-10.2 31.35-6.5 31.35-1.68 31.35 3.15 31.58 7.3 31.8 11.45 31.8 12.2 31.8 12.95 31.13 13.7 30.45 14.45 29.4 14.45 28.35 14.45 27.68 13.7 27 12.95 27 12.15 27 11.35 27.2 7.23 27.4 3.1 27.45-1.45L27.45-1.45 27.45-3.55Q22.65 0.3 17.35 0.3L17.35 0.3Q10.85 0.3 6.43-4.38 2-9.05 2-15.7L2-15.7Q2-24 6.98-29.4 11.95-34.8 19.65-34.8L19.65-34.8Q24.1-34.8 27.83-33.02 31.55-31.25 31.55-28.95L31.55-28.95Q31.55-27.95 30.88-27.25 30.2-26.55 29.25-26.55 28.3-26.55 27.35-27.3 26.4-28.05 25.53-28.98 24.65-29.9 22.78-30.65 20.9-31.4 18.35-31.4L18.35-31.4Q12.6-31.4 9.35-27.75 6.1-24.1 6.1-18.1 6.1-12.1 9.68-7.6 13.25-3.1 19-3.1L19-3.1Q23.5-3.1 27.4-6.8ZM37.85-3.65L37.85-3.65Q37.85-23.1 37.6-26.9L37.6-26.9Q37.15-33.8 37.15-34.95 37.15-36.1 37.82-36.8 38.5-37.5 39.45-37.5 40.4-37.5 41-36.8 41.6-36.1 41.6-35.05L41.6-35.05Q41.6-31.9 41.35-26.5L41.35-26.5Q40.85-13.8 40.85-7.6L40.85-7.6Q40.85-6.1 41.82-4.73 42.8-3.35 42.8-2.25 42.8-1.15 42.05-0.43 41.3 0.3 40.35 0.3L40.35 0.3Q37.85 0.3 37.85-3.65ZM52.07-16.65Q49.85-14.45 49.85-11.25 49.85-8.05 52.07-5.83 54.3-3.6 57.47-3.6 60.65-3.6 62.8-5.83 64.95-8.05 64.95-11.25 64.95-14.45 62.8-16.65 60.65-18.85 57.47-18.85 54.3-18.85 52.07-16.65ZM54.05 0.3Q50.85 0.3 48.7-2.2 46.55-4.7 46.55-8.47 46.55-12.25 48.9-15.78 51.25-19.3 54.4-21.05 57.55-22.8 60.75-22.8 63.95-22.8 66.1-20.3 68.25-17.8 68.25-14.03 68.25-10.25 65.9-6.73 63.55-3.2 60.4-1.45 57.25 0.3 54.05 0.3ZM79.49 0.3L79.49 0.3Q78.59 0.3 77.92-0.48 77.24-1.25 76.89-2.35L76.89-2.35Q73.79-12.45 71.44-17.45L71.44-17.45Q70.49-19.6 70.49-20.6 70.49-21.6 71.04-22.2 71.59-22.8 72.44-22.8L72.44-22.8Q73.74-22.8 74.57-20.85 75.39-18.9 77.62-12.88 79.84-6.85 80.29-5.43 80.74-4 80.89-3.6L80.89-3.6 81.04-3.1Q82.44-4.05 84.22-7.05 85.99-10.05 86.64-13L86.64-13Q85.69-15.55 84.79-17.57 83.89-19.6 83.89-20.6 83.89-21.6 84.44-22.2 84.99-22.8 85.84-22.8L85.84-22.8Q87.14-22.8 87.97-20.85 88.79-18.9 91.02-12.88 93.24-6.85 93.69-5.43 94.14-4 94.29-3.6L94.29-3.6 94.44-3.1Q96.24-4.3 98.32-8.33 100.39-12.35 100.39-15.6L100.39-15.6Q100.39-16.7 99.79-18.23 99.19-19.75 99.19-20.6 99.19-21.45 99.87-22.13 100.54-22.8 101.69-22.8 102.84-22.8 103.57-21.7 104.29-20.6 104.29-18 104.29-15.4 102.57-10.95 100.84-6.5 98.09-3.1 95.34 0.3 92.89 0.3L92.89 0.3Q91.19 0.3 90.29-2.35L90.29-2.35Q90.09-2.9 89.39-5.1L89.39-5.1 88.14-8.75Q86.29-4.9 83.94-2.3 81.59 0.3 79.49 0.3ZM107.44-17.45L107.44-17.45Q106.29-19.5 106.29-20.53 106.29-21.55 106.89-22.18 107.49-22.8 108.64-22.8 109.79-22.8 110.79-20.93 111.79-19.05 114.19-13.13 116.59-7.2 117.64-4.2L117.64-4.2 118.04-3.1Q119.79-4.2 121.92-8.22 124.04-12.25 124.04-15.5L124.04-15.5Q124.04-16.6 123.44-18.18 122.84-19.75 122.84-20.6 122.84-21.45 123.52-22.13 124.19-22.8 125.34-22.8 126.49-22.8 127.22-21.73 127.94-20.65 127.94-18.07 127.94-15.5 126.14-11.1 124.34-6.7 121.69-3.35L121.69-3.35Q118.79 0.3 116.54 0.3L116.54 0.3Q114.94 0.3 113.94-2.35L113.94-2.35Q110.49-11.9 107.44-17.45ZM140.84-9.95L140.84-9.95 134.89-10.45Q134.04-10.45 133.54-10.3L133.54-10.3Q133.84-7.45 135.96-5.55 138.09-3.65 140.99-3.65L140.99-3.65Q143.79-3.65 146.04-5.7L146.04-5.7Q146.84-6.4 147.24-6.4 147.64-6.4 147.94-6.1 148.24-5.8 148.24-5.45L148.24-5.45Q148.24-4 145.41-1.85 142.59 0.3 139.01 0.3 135.44 0.3 132.81-2.6 130.19-5.5 130.19-9.8L130.19-9.8Q130.19-15.3 134.34-19.05 138.49-22.8 143.49-22.8L143.49-22.8Q145.59-22.8 146.91-22.08 148.24-21.35 148.24-20.23 148.24-19.1 147.56-18.4 146.89-17.7 146.24-17.7 145.59-17.7 144.01-18.3 142.44-18.9 140.99-18.9L140.99-18.9Q138.29-18.9 136.31-17.28 134.34-15.65 133.69-13.25L133.69-13.25 140.59-13.65Q142.89-13.65 142.89-11.85L142.89-11.85Q142.89-9.95 140.84-9.95ZM157.94 0.3Q154.79 0.3 152.64-2.2 150.49-4.7 150.49-7.98 150.49-11.25 151.79-14.1 153.09-16.95 155.09-18.8 157.09-20.65 159.41-21.73 161.74-22.8 164.21-22.8 166.69-22.8 168.79-20.95L168.79-20.95Q168.74-24.7 168.44-29.18 168.14-33.65 168.14-34.8 168.14-35.95 168.74-36.73 169.34-37.5 170.29-37.5 171.24-37.5 171.91-36.68 172.59-35.85 172.59-34.48 172.59-33.1 172.16-28.08 171.74-23.05 171.74-18.65 171.74-14.25 172.09-11.03 172.44-7.8 172.84-6.65L172.84-6.65Q173.99-3.6 173.99-2.55L173.99-2.55Q173.99 0.3 171.79 0.3L171.79 0.3Q169.14 0.3 168.69-5.35L168.69-5.35Q166.69-2.7 163.89-1.2 161.09 0.3 157.94 0.3ZM156.01-16.65Q153.79-14.45 153.79-11.25 153.79-8.05 156.01-5.83 158.24-3.6 161.41-3.6 164.59-3.6 166.74-5.83 168.89-8.05 168.89-11.45 168.89-14.85 166.94-16.85 164.99-18.85 161.61-18.85 158.24-18.85 156.01-16.65ZM195.58-6.7Q195.93-5.8 197.06-4.28 198.18-2.75 198.18-1.8 198.18-0.85 197.68-0.28 197.18 0.3 196.33 0.3L196.33 0.3Q194.28 0.3 192.68-3.95L192.68-3.95 192.28-5.05Q189.73 0.3 184.63 0.3L184.63 0.3Q182.08 0.3 180.41-1.33 178.73-2.95 178.73-5.4L178.73-5.4Q178.73-9.2 181.33-11.95 183.93-14.7 188.13-14.9L188.13-14.9Q187.13-16.65 185.91-17.53 184.68-18.4 183.68-18.55 182.68-18.7 181.81-18.73 180.93-18.75 180.43-19.1 179.93-19.45 179.93-20.48 179.93-21.5 180.76-22.15 181.58-22.8 182.73-22.8L182.73-22.8Q185.98-22.8 189.13-19.55 192.28-16.3 194.63-9.35L194.63-9.35 195.58-6.7ZM186.88-12.25Q185.08-12.25 183.66-11.05 182.23-9.85 182.23-7.95 182.23-6.05 183.51-4.78 184.78-3.5 186.58-3.5 188.38-3.5 189.68-4.78 190.98-6.05 190.98-7.8L190.98-7.8Q190.98-9.05 190.53-10.13 190.08-11.2 189.98-11.45L189.98-11.45Q188.68-12.25 186.88-12.25Z" opacity="1" transform="matrix(1,0,0,1,0,0)" fill="black" class="wordmark-text-0" id="SvgjsPath2477"></path></svg></g></svg></g></svg></g></svg></g><g><svg viewBox="0 0 144.73149259938836 144.73149259938836" height="144.73149259938836" width="144.73149259938836"><g><svg xmlns="http://www.w3.org/2000/svg" xmlns:xlink="http://www.w3.org/1999/xlink" version="1.1" x="0" y="0" viewBox="5 5 90 90" style="enable-background:new 0 0 100 100;" xml:space="preserve" height="144.73149259938836" width="144.73149259938836" class="icon-icon-0" data-fill-palette-color="accent" id="SvgjsSvg2476"><path d="M53.75 5C42.731 5 32.373 9.291 24.582 17.082L17.082 24.582C9.291 32.373 5 42.731 5 53.75S9.291 75.127 17.082 82.918 35.231 95 46.25 95 67.627 90.709 75.418 82.918L82.918 75.418C90.709 67.627 95 57.269 95 46.25S90.709 24.873 82.918 17.082 64.769 5 53.75 5M71.883 79.383C57.748 93.516 34.752 93.516 20.617 79.383 6.483 65.249 6.483 42.251 20.617 28.117 27.684 21.051 36.967 17.516 46.25 17.516S64.815 21.05 71.883 28.117C86.017 42.251 86.017 65.249 71.883 79.383M86.858 60.994A42 42 0 0 0 87.5 53.75C87.5 42.731 83.209 32.373 75.418 24.582S57.269 12.5 46.25 12.5C43.795 12.5 41.375 12.725 39.007 13.142A36.3 36.3 0 0 1 53.75 10.016C63.033 10.016 72.315 13.55 79.383 20.617 90.281 31.516 92.767 47.682 86.858 60.994" fill="black"></path><path d="M46.25 22.5A31.07 31.07 0 0 0 28.74 27.88 2 2 0 0 0 28.494 28.055C20.349 33.701 15 43.11 15 53.75 15 70.981 29.019 85 46.25 85 56.891 85 66.302 79.65 71.948 71.503 72.009 71.424 72.069 71.346 72.12 71.262A31.1 31.1 0 0 0 77.5 53.75C77.5 36.519 63.481 22.5 46.25 22.5M46.25 80C31.775 80 20 68.225 20 53.75 20 49.514 21.015 45.512 22.805 41.966A31.5 31.5 0 0 0 22.5 46.25C22.5 63.481 36.519 77.5 53.75 77.5 55.193 77.5 56.622 77.389 58.034 77.195A26.1 26.1 0 0 1 46.25 80M68.171 68.166A26.1 26.1 0 0 1 53.75 72.5C39.275 72.5 27.5 60.725 27.5 46.25A26.1 26.1 0 0 1 31.834 31.829 26.1 26.1 0 0 1 46.25 27.5C60.725 27.5 72.5 39.275 72.5 53.75A26.1 26.1 0 0 1 68.171 68.166" fill="black"></path></svg></g></svg></g></svg></g></svg></g><defs><mask></mask></defs></svg><rect width="395.52" height="101.32168445721567" fill="black" stroke="none" visibility="hidden"></rect></g></mask></svg><rect width="395.52" height="101.32168445721567" fill="black" stroke="none" visibility="hidden"></rect></g></mask><linearGradient x1="0.054" x2="0.941" y1="0.5" y2="0.5" id="2d76bbdf-34af-43da-abd8-1a4753ef82e4"><stop stop-color="#eaa79c" offset="0"></stop><stop stop-color="#f2e8cb" offset="0.498"></stop><stop stop-color="#eaa79c" offset="1"></stop></linearGradient><rect width="395.52" height="101.32168445721567" fill="url(#2d76bbdf-34af-43da-abd8-1a4753ef82e4)" mask="url(#f7010603-8df0-419f-8c73-98a0a3d04f46)" data-fill-palette-color="accent"></rect></svg><rect width="395.52" height="101.32168445721567" fill="none" stroke="none" visibility="hidden"></rect></g></svg></g></svg>